<svg width="100" height="100" viewBox="0 0 100 100" fill="none" xmlns="http://www.w3.org/2000/svg">
<path d="M50.3715 40.625C52.0973 40.625 53.4965 42.0241 53.4965 43.75V48.5974C53.4965 56.0635 52.3332 63.4839 50.0485 70.5918L41.729 96.4746C41.2009 98.1177 39.4408 99.0216 37.7977 98.4934C36.1546 97.9653 35.2507 96.2051 35.7789 94.562L44.0983 68.6793C46.1843 62.1895 47.2465 55.4143 47.2465 48.5974V43.75C47.2465 42.0241 48.6456 40.625 50.3715 40.625Z" fill="white"/>
<path d="M37.8715 43.75C37.8715 36.8464 43.468 31.25 50.3715 31.25C57.2751 31.25 62.8715 36.8464 62.8715 43.75C62.8715 45.4759 61.4724 46.875 59.7465 46.875C58.0207 46.875 56.6215 45.4759 56.6215 43.75C56.6215 40.2982 53.8233 37.5 50.3715 37.5C46.9198 37.5 44.1215 40.2982 44.1215 43.75V45.8271C44.1215 48.379 43.9856 50.9258 43.7154 53.4567C43.5322 55.1729 41.9925 56.4156 40.2764 56.2323C38.5602 56.0491 37.3176 54.5094 37.5008 52.7933C37.7475 50.4824 37.8715 48.1571 37.8715 45.8271V43.75ZM59.8044 50.001C61.5297 50.0458 62.8921 51.4807 62.8474 53.206C62.6635 60.3008 61.4297 67.3328 59.1832 74.0723L51.2669 97.8212C50.7211 99.4585 48.9513 100.343 47.314 99.7976C45.6767 99.2518 44.7918 97.4821 45.3376 95.8447L53.2539 72.0959C55.305 65.9424 56.4316 59.5219 56.5995 53.044C56.6442 51.3187 58.0791 49.9563 59.8044 50.001ZM38.8334 63.22C40.4818 63.7315 41.4033 65.4825 40.8918 67.1308L32.7484 93.3704C32.2369 95.0188 30.4859 95.9403 28.8376 95.4288C27.1893 94.9172 26.2677 93.1663 26.7793 91.5179L34.9226 65.2783C35.4342 63.63 37.1851 62.7084 38.8334 63.22Z" fill="white"/>
<path d="M29.7423 36.4586C32.7438 27.9666 40.8423 21.875 50.3717 21.875C62.453 21.875 72.2467 31.6688 72.2467 43.75C72.2467 45.4759 70.8476 46.875 69.1217 46.875C67.3959 46.875 65.9967 45.4759 65.9967 43.75C65.9967 35.1206 59.0012 28.125 50.3717 28.125C43.5734 28.125 37.7815 32.4685 35.635 38.5414C35.0599 40.1686 33.2745 41.0215 31.6473 40.4464C30.02 39.8712 29.1671 38.0858 29.7423 36.4586ZM31.621 46.89C33.3386 47.0589 34.5941 48.5882 34.4252 50.3058C34.0027 54.6038 33.165 58.8561 31.9211 63.0026L24.2862 88.4523C23.7902 90.1054 22.0481 91.0435 20.395 90.5475C18.7419 90.0516 17.8038 88.3095 18.2997 86.6564L25.9347 61.2067C27.0626 57.447 27.8221 53.5914 28.2052 49.6942C28.3741 47.9766 29.9034 46.7211 31.621 46.89ZM69.1217 50.9375C70.8476 50.9375 72.2467 52.3366 72.2467 54.0625C72.2467 62.065 70.9103 70.0113 68.2926 77.5736L61.487 97.2343C60.9224 98.8653 59.1426 99.7297 57.5117 99.1652C55.8807 98.6006 55.0163 96.8208 55.5808 95.1899L62.3865 75.5292C64.7765 68.6245 65.9967 61.3692 65.9967 54.0625C65.9967 52.3366 67.3959 50.9375 69.1217 50.9375Z" fill="white"/>
<path d="M24.3857 26.3867C29.9864 18.0197 39.5337 12.5 50.3715 12.5C52.6074 12.5 54.7918 12.7353 56.9001 13.1837C58.5882 13.5426 59.6657 15.2022 59.3067 16.8903C58.9477 18.5784 57.2882 19.6559 55.6001 19.297C53.9165 18.939 52.1678 18.75 50.3715 18.75C41.7066 18.75 34.0695 23.1555 29.5795 29.8633C28.6194 31.2975 26.6785 31.6819 25.2442 30.7219C23.81 29.7619 23.4256 27.8209 24.3857 26.3867ZM66.3854 20.4168C67.5138 19.1109 69.4872 18.9669 70.7931 20.0953C77.4199 25.8209 81.6215 34.2966 81.6215 43.75V53.125C81.6215 54.8509 80.2224 56.25 78.4965 56.25C76.7706 56.25 75.3715 54.8509 75.3715 53.125V43.75C75.3715 36.1884 72.0183 29.4136 66.707 24.8245C65.401 23.6962 65.2571 21.7228 66.3854 20.4168ZM23.006 36.5152C24.7134 36.7673 25.8931 38.3557 25.641 40.0631C25.4636 41.2646 25.3715 42.4956 25.3715 43.75C25.3715 48.1906 24.7431 52.6089 23.505 56.8734L16.3865 81.3925C15.9053 83.05 14.1716 84.0035 12.5142 83.5223C10.8567 83.0411 9.90318 81.3074 10.3844 79.65L17.5028 55.1309C18.5765 51.4326 19.1215 47.601 19.1215 43.75C19.1215 42.1891 19.2362 40.653 19.458 39.1502C19.7101 37.4428 21.2986 36.2631 23.006 36.5152ZM78.517 59.3859C80.2369 59.5302 81.5141 61.0414 81.3698 62.7613C80.8453 69.0131 79.5037 75.1782 77.3727 81.0974L72.7177 94.028C72.1331 95.6519 70.3428 96.4944 68.7189 95.9098C67.0951 95.3252 66.2526 93.5349 66.8372 91.911L71.4922 78.9804C73.4378 73.5759 74.6628 67.9469 75.1417 62.2387C75.286 60.5189 76.7972 59.2416 78.517 59.3859Z" fill="white"/>
<path d="M30.0569 8.56178C36.0354 5.10338 42.9772 3.125 50.3716 3.125C72.8081 3.125 90.9966 21.3134 90.9966 43.75C90.9966 45.4759 89.5975 46.875 87.8716 46.875C86.1457 46.875 84.7466 45.4759 84.7466 43.75C84.7466 24.7652 69.3564 9.375 50.3716 9.375C44.1052 9.375 38.2393 11.0489 33.1864 13.9718C31.6924 14.836 29.7808 14.3255 28.9166 12.8316C28.0524 11.3376 28.5629 9.42598 30.0569 8.56178ZM24.5043 16.4215C25.7904 17.5725 25.8998 19.5481 24.7488 20.8341C19.3038 26.9178 15.9966 34.9439 15.9966 43.75C15.9966 45.4759 14.5975 46.875 12.8716 46.875C11.1457 46.875 9.74656 45.4759 9.74656 43.75C9.74656 33.3472 13.6607 23.8511 20.0917 16.6659C21.2427 15.3799 23.2183 15.2704 24.5043 16.4215ZM11.9598 50.1167C13.6213 50.584 14.5893 52.3096 14.122 53.9711L9.25835 71.2642C8.79107 72.9256 7.06541 73.8937 5.40399 73.4264C3.74256 72.9591 2.7745 71.2335 3.24178 69.572L8.10547 52.2789C8.57274 50.6175 10.2984 49.6494 11.9598 50.1167ZM87.8968 53.1256C89.6223 53.1594 90.9938 54.5856 90.96 56.3112C90.7765 65.6807 89.9559 75.2167 86.4202 84.6452L85.9833 85.8104C85.3773 87.4264 83.576 88.2452 81.96 87.6392C80.344 87.0332 79.5252 85.2319 80.1312 83.6159L80.5682 82.4507C83.7314 74.0156 84.5324 65.3193 84.7112 56.1888C84.745 54.4633 86.1712 53.0918 87.8968 53.1256Z" fill="white"/>
</svg>
